<mxfile host="6mf">
  <diagram id="FhJ" name="iOS UI components">
    <mxGraphModel dx="0" dy="0" background="#FFFACD" grid="0" gridSize="10" guides="1" tooltips="1" connect="1" arrows="1" fold="1" page="1" pageScale="1" pageWidth="1169" pageHeight="827" math="0" shadow="0">
      <root>
        <mxCell id="page_root_FhJ" parent="FhJ"/>
        <mxCell id="node_root_FhJ" parent="page_root_FhJ"/>
        <mxCell id="FhJ-2" value="iOSButton" style="whiteSpace=wrap;html=1;fillColor=#f5f5f5;strokeColor=#666666;fontColor=#333333;fillColor=none;strokeColor=none;" vertex="1" parent="node_root_FhJ">
          <mxGeometry x="60" y="60" width="160" height="160" as="geometry"/>
        </mxCell>
        <mxCell id="FhJ-3" value="iOSSegmentedControl" style="whiteSpace=wrap;html=1;fillColor=#f5f5f5;strokeColor=#666666;fontColor=#333333;mxCompositeShape" vertex="1" parent="node_root_FhJ">
          <mxGeometry x="280" y="60" width="160" height="160" as="geometry"/>
        </mxCell>
        <mxCell id="FhJ-4" value="iOSStepper" style="whiteSpace=wrap;html=1;fillColor=#f5f5f5;strokeColor=#666666;fontColor=#333333;shape=mxgraph.ios7.misc.adjust" vertex="1" parent="node_root_FhJ">
          <mxGeometry x="500" y="60" width="160" height="160" as="geometry"/>
        </mxCell>
        <mxCell id="FhJ-5" value="iOSToggle" style="whiteSpace=wrap;html=1;fillColor=#f5f5f5;strokeColor=#666666;fontColor=#333333;shape=mxgraph.ios7ui.onOffButton;buttonState=on;strokeColor2=#aaaaaa;fillColor2=#ffffff" vertex="1" parent="node_root_FhJ">
          <mxGeometry x="720" y="60" width="160" height="160" as="geometry"/>
        </mxCell>
        <mxCell id="FhJ-6" value="iOSSlider" style="whiteSpace=wrap;html=1;fillColor=#f5f5f5;strokeColor=#666666;fontColor=#333333;mxCompositeShape" vertex="1" parent="node_root_FhJ">
          <mxGeometry x="940" y="60" width="160" height="160" as="geometry"/>
        </mxCell>
        <mxCell id="FhJ-7" value="iOSProgressBar" style="whiteSpace=wrap;html=1;fillColor=#f5f5f5;strokeColor=#666666;fontColor=#333333;mxCompositeShape" vertex="1" parent="node_root_FhJ">
          <mxGeometry x="60" y="280" width="160" height="160" as="geometry"/>
        </mxCell>
        <mxCell id="FhJ-8" value="iOSPageControls" style="whiteSpace=wrap;html=1;fillColor=#f5f5f5;strokeColor=#666666;fontColor=#333333;mxCompositeShape" vertex="1" parent="node_root_FhJ">
          <mxGeometry x="280" y="280" width="160" height="160" as="geometry"/>
        </mxCell>
        <mxCell id="FhJ-9" value="iOSStatusBar" style="whiteSpace=wrap;html=1;fillColor=#f5f5f5;strokeColor=#666666;fontColor=#333333;mxCompositeShape" vertex="1" parent="node_root_FhJ">
          <mxGeometry x="500" y="280" width="160" height="160" as="geometry"/>
        </mxCell>
        <mxCell id="FhJ-10" value="iOSSearchBar" style="whiteSpace=wrap;html=1;fillColor=#f5f5f5;strokeColor=#666666;fontColor=#333333;mxCompositeShape" vertex="1" parent="node_root_FhJ">
          <mxGeometry x="720" y="280" width="160" height="160" as="geometry"/>
        </mxCell>
        <mxCell id="FhJ-11" value="iOSNavBar" style="whiteSpace=wrap;html=1;fillColor=#f5f5f5;strokeColor=#666666;fontColor=#333333;mxCompositeShape" vertex="1" parent="node_root_FhJ">
          <mxGeometry x="940" y="280" width="160" height="160" as="geometry"/>
        </mxCell>
        <mxCell id="FhJ-12" value="iOSTabs" style="whiteSpace=wrap;html=1;fillColor=#f5f5f5;strokeColor=#666666;fontColor=#333333;mxCompositeShape" vertex="1" parent="node_root_FhJ">
          <mxGeometry x="60" y="500" width="160" height="160" as="geometry"/>
        </mxCell>
        <mxCell id="FhJ-13" value="iOSUniversalKeyboard" style="whiteSpace=wrap;html=1;fillColor=#f5f5f5;strokeColor=#666666;fontColor=#333333;shape=mxgraph.ios.iKeybLett" vertex="1" parent="node_root_FhJ">
          <mxGeometry x="280" y="500" width="160" height="160" as="geometry"/>
        </mxCell>
        <mxCell id="FhJ-14" value="iOSDatePicker" style="whiteSpace=wrap;html=1;fillColor=#f5f5f5;strokeColor=#666666;fontColor=#333333;mxCompositeShape" vertex="1" parent="node_root_FhJ">
          <mxGeometry x="500" y="500" width="160" height="160" as="geometry"/>
        </mxCell>
        <mxCell id="FhJ-15" value="iOSTimePicker" style="whiteSpace=wrap;html=1;fillColor=#f5f5f5;strokeColor=#666666;fontColor=#333333;mxCompositeShape" vertex="1" parent="node_root_FhJ">
          <mxGeometry x="720" y="500" width="160" height="160" as="geometry"/>
        </mxCell>
        <mxCell id="FhJ-16" value="iOSCountdownPicker" style="whiteSpace=wrap;html=1;fillColor=#f5f5f5;strokeColor=#666666;fontColor=#333333;mxCompositeShape" vertex="1" parent="node_root_FhJ">
          <mxGeometry x="940" y="500" width="160" height="160" as="geometry"/>
        </mxCell>
        <mxCell id="FhJ-17" value="iOSBasicCell" style="whiteSpace=wrap;html=1;fillColor=#f5f5f5;strokeColor=#666666;fontColor=#333333;mxCompositeShape" vertex="1" parent="node_root_FhJ">
          <mxGeometry x="60" y="720" width="160" height="160" as="geometry"/>
        </mxCell>
        <mxCell id="FhJ-18" value="iOSSubtitleCell" style="whiteSpace=wrap;html=1;fillColor=#f5f5f5;strokeColor=#666666;fontColor=#333333;mxCompositeShape" vertex="1" parent="node_root_FhJ">
          <mxGeometry x="280" y="720" width="160" height="160" as="geometry"/>
        </mxCell>
        <mxCell id="FhJ-19" value="iOSRightDetailCell" style="whiteSpace=wrap;html=1;fillColor=#f5f5f5;strokeColor=#666666;fontColor=#333333;mxCompositeShape" vertex="1" parent="node_root_FhJ">
          <mxGeometry x="500" y="720" width="160" height="160" as="geometry"/>
        </mxCell>
        <mxCell id="FhJ-20" value="iOSLeftDetailCell" style="whiteSpace=wrap;html=1;fillColor=#f5f5f5;strokeColor=#666666;fontColor=#333333;mxCompositeShape" vertex="1" parent="node_root_FhJ">
          <mxGeometry x="720" y="720" width="160" height="160" as="geometry"/>
        </mxCell>
        <mxCell id="FhJ-21" value="iOSTableGroupedSectionBreak" style="whiteSpace=wrap;html=1;fillColor=#f5f5f5;strokeColor=#666666;fontColor=#333333;mxCompositeShape" vertex="1" parent="node_root_FhJ">
          <mxGeometry x="940" y="720" width="160" height="160" as="geometry"/>
        </mxCell>
        <mxCell id="FhJ-22" value="iOSTablePlainHeaderFooter" style="whiteSpace=wrap;html=1;fillColor=#f5f5f5;strokeColor=#666666;fontColor=#333333;mxCompositeShape" vertex="1" parent="node_root_FhJ">
          <mxGeometry x="60" y="940" width="160" height="160" as="geometry"/>
        </mxCell>
      </root>
    </mxGraphModel>
  </diagram>
</mxfile>